<?xml version="1.0" encoding="UTF-8"?>
<!DOCTYPE svg PUBLIC "-//W3C//DTD SVG 1.1//EN" "http://www.w3.org/Graphics/SVG/1.1/DTD/svg11.dtd">
<!-- Creator: CorelDRAW -->
<svg xmlns="http://www.w3.org/2000/svg" xml:space="preserve" width="1000px" height="165px" version="1.1" style="shape-rendering:geometricPrecision; text-rendering:geometricPrecision; image-rendering:optimizeQuality; fill-rule:evenodd; clip-rule:evenodd"
viewBox="0 0 1000000 164760"
 xmlns:xlink="http://www.w3.org/1999/xlink"
 xmlns:xodm="http://www.corel.com/coreldraw/odm/2003">
 <defs>
  <style type="text/css">
   <![CDATA[
    .fil0 {fill:#222233}
    .fil1 {fill:#52BD31}
    .fil2 {fill:#222233;fill-rule:nonzero}
    .fil3 {fill:#52BD31;fill-rule:nonzero}
   ]]>
  </style>
 </defs>
 <g id="Слой_x0020_1">
  <metadata id="CorelCorpID_0Corel-Layer"/>
  <g id="_1526483890624">
   <polygon class="fil0" points="0,0 133020,0 133020,97750 116390,81120 116390,16630 16630,16630 16630,116390 81120,116390 97750,133020 0,133020 "/>
   <polygon class="fil1" points="144780,133020 121260,133020 92880,104640 116390,104640 "/>
  </g>
  <g id="_1526483891728">
   <path class="fil2" d="M548680 137710l0 -13300c-9720,-300 -18340,-2290 -25840,-5940 -7500,-3650 -13370,-8760 -17610,-15360 -4220,-6600 -6340,-14460 -6340,-23570 0,-9120 2120,-17000 6340,-23650 4240,-6650 10110,-11810 17610,-15460 7500,-3650 16120,-5620 25840,-5930l0 -13060 16390 0 0 13060c9770,310 18410,2280 25890,5930 7470,3650 13320,8810 17550,15460 4230,6650 6350,14530 6350,23650 0,9110 -2120,16970 -6350,23570 -4230,6600 -10080,11710 -17550,15360 -7480,3650 -16120,5640 -25890,5940l0 13300 -16390 0zm0 -27810l0 -60880c-6750,190 -12540,1530 -17410,4020 -4850,2500 -8610,5990 -11250,10480 -2640,4480 -3980,9820 -3980,16020 0,6140 1340,11460 3980,15940 2640,4480 6400,7960 11250,10450 4870,2490 10660,3820 17410,3970zm16390 0c6750,-150 12570,-1480 17460,-3970 4880,-2490 8650,-5970 11300,-10450 2640,-4480 3950,-9800 3950,-15940 0,-6200 -1310,-11540 -3950,-16020 -2650,-4490 -6420,-7980 -11300,-10480 -4890,-2490 -10710,-3830 -17460,-4020l0 60880zm67760 54860l0 -106530 14960 0 0 10500c2970,-3770 6780,-6850 11410,-9210 4630,-2370 10350,-3550 17150,-3550 7300,0 13800,1710 19460,5160 5670,3440 10080,8160 13250,14120 3170,5970 4760,12770 4760,20380 0,5490 -900,10630 -2720,15430 -1810,4820 -4380,9050 -7720,12670 -3360,3630 -7340,6450 -11940,8490 -4610,2040 -9720,3070 -15310,3070 -5850,0 -10980,-1060 -15420,-3170 -4430,-2120 -8210,-4960 -11330,-8540l0 41180 -16550 0zm40500 -44200c4630,0 8760,-1040 12370,-3070 3600,-2050 6420,-4920 8450,-8640 2040,-3730 3050,-8130 3050,-13220 0,-5090 -1030,-9520 -3100,-13270 -2060,-3750 -4880,-6630 -8480,-8640 -3600,-2010 -7710,-3020 -12290,-3020 -4630,0 -8740,1010 -12340,3020 -3610,2010 -6450,4890 -8510,8640 -2070,3750 -3100,8180 -3100,13270 0,5090 1030,9490 3100,13220 2060,3720 4900,6590 8510,8640 3600,2030 7710,3070 12340,3070zm92090 14730c-8060,0 -15130,-1660 -21230,-4970 -6100,-3290 -10830,-7890 -14220,-13840 -3400,-5940 -5120,-12840 -5120,-20700 0,-5740 980,-11060 2950,-15920 1960,-4850 4730,-9060 8310,-12640 3570,-3570 7780,-6340 12590,-8310 4810,-1960 10050,-2940 15730,-2940 6200,0 11720,1080 16560,3260 4830,2200 8860,5270 12060,9200 3190,3930 5460,8510 6790,13770 1340,5270 1540,10980 640,17130l-59690 0c-100,4480 890,8390 2950,11730 2060,3360 5040,5970 8890,7840 3850,1860 8390,2790 13620,2790 4230,0 8340,-650 12290,-1930 3950,-1290 7530,-3180 10750,-5700l6420 11940c-2410,1970 -5340,3630 -8760,5010 -3430,1390 -7000,2450 -10730,3170 -3720,740 -7320,1110 -10800,1110zm-23640 -48200l42380 0c-150,-5640 -1940,-10080 -5390,-13290 -3460,-3230 -8360,-4840 -14710,-4840 -6150,0 -11230,1610 -15280,4840 -4060,3210 -6400,7650 -7000,13290zm75990 45930l0 -74790 16100 0 0 50470 40570 -50470 14500 0 0 74790 -16010 0 0 -51070 -40950 51070 -14210 0zm35590 -87640c-5600,0 -10510,-1150 -14730,-3470 -4240,-2310 -7510,-5510 -9830,-9590 -2310,-4080 -3390,-8770 -3240,-14060l13890 0c-190,4640 990,8370 3540,11210 2540,2850 5980,4290 10370,4290 4380,0 7830,-1440 10350,-4290 2520,-2840 3650,-6570 3400,-11210l13970 0c100,5240 -1000,9910 -3340,13980 -2350,4080 -5620,7280 -9820,9620 -4210,2340 -9080,3520 -14560,3520zm58770 87640l0 -74790 14430 0 450 0 33550 48500 -7180 150 31880 -48650 14740 0 0 74790 -15120 0 230 -55300 3090 1360 -26740 39050 -10720 0 -27950 -39120 3090 -1360 230 55370 -13980 0z"/>
   <path class="fil3" d="M256990 133020l-24780 -39740 23040 -35050 17760 0 -22890 34300 26740 40490 -19870 0zm-49720 0l0 -74790 16630 0 0 28860 22520 0 0 13750 -22520 0 0 32180 -16630 0zm84320 0l0 -74790 16620 0 0 62180 14280 0c5440,0 9540,-1060 12320,-3170 2760,-2120 4150,-5270 4150,-9450 0,-4130 -1280,-7300 -3850,-9520 -2570,-2220 -6350,-3320 -11340,-3320l-17830 0 0 -12470 19120 0c9670,0 17270,2170 22810,6500 5550,4330 8320,10600 8320,18810 0,5290 -1340,9800 -4010,13550 -2670,3750 -6400,6650 -11210,8660 -4800,2020 -10440,3020 -16890,3020l-32490 0zm82040 0l0 -74790 16620 0 -70 28860 25310 0 0 13750 -25310 0 70 32180 -16620 0zm73210 2270c-7850,0 -14830,-1810 -20930,-5410 -6090,-3610 -10880,-8410 -14370,-14440 -3510,-6010 -5270,-12610 -5270,-19810 0,-5340 1010,-10410 3020,-15160 2020,-4760 4840,-8970 8460,-12640 3630,-3680 7910,-6580 12850,-8690 4930,-2120 10340,-3170 16240,-3170 7850,0 14830,1780 20930,5380 6090,3610 10900,8410 14400,14440 3500,6010 5240,12640 5240,19840 0,5290 -1010,10320 -3020,15110 -2020,4780 -4840,9020 -8460,12690 -3630,3680 -7910,6570 -12850,8690 -4930,2110 -10350,3170 -16240,3170zm0 -14730c4630,0 8740,-1040 12310,-3070 3580,-2050 6400,-4920 8470,-8640 2060,-3730 3090,-8130 3090,-13220 0,-5090 -1030,-9520 -3090,-13270 -2070,-3750 -4890,-6630 -8470,-8640 -3570,-2010 -7680,-3020 -12310,-3020 -4640,0 -8740,1010 -12340,3020 -3600,2010 -6420,4890 -8460,8640 -2040,3750 -3070,8180 -3070,13270 0,5090 1030,9490 3070,13220 2040,3720 4860,6590 8460,8640 3600,2030 7700,3070 12340,3070z"/>
  </g>
 </g>
</svg>
